<svg id="Group_7" data-name="Group 7" xmlns="http://www.w3.org/2000/svg" width="189.125" height="16.366" viewBox="0 0 189.125 16.366">
  <path id="Path_17" data-name="Path 17" d="M154.7,0h.837V.893c0,.651-.353.986-1.042.986h-.837V.986C153.654.335,154.007,0,154.7,0Zm-1.042,4.371c0-.651.353-.986,1.042-.986h.837v9.448H154.7c-.688,0-1.042-.335-1.042-.986Z" transform="translate(-106.025)" fill="#fff"/>
  <path id="Path_18" data-name="Path 18" d="M169.958,10.917a1.341,1.341,0,0,0,.893.316v.856a.708.708,0,0,1-.577.781,1.224,1.224,0,0,1-.949-.112,2.708,2.708,0,0,1-1.19-1.042,3.456,3.456,0,0,1-.5-1.916V.986c0-.651.353-.986,1.042-.986h.837V9.8A1.4,1.4,0,0,0,169.958,10.917Z" transform="translate(-115.671)" fill="#fff"/>
  <path id="Path_19" data-name="Path 19" d="M189.257,11.057a3.529,3.529,0,0,1,1.395,2.827V19.7h-.558a1.154,1.154,0,0,1-1.06-.763,4.106,4.106,0,0,1-2.9,1.042,4.745,4.745,0,0,1-3.125-1.1,3.5,3.5,0,0,1-1.395-2.808V13.883a3.53,3.53,0,0,1,1.395-2.827,4.745,4.745,0,0,1,3.125-1.1A4.817,4.817,0,0,1,189.257,11.057Zm-3.125.781a2.914,2.914,0,0,0-1.934.67,1.745,1.745,0,0,0-.707,1.376v2.195a1.772,1.772,0,0,0,.707,1.376,3.2,3.2,0,0,0,3.869,0,1.745,1.745,0,0,0,.707-1.376V13.884a1.745,1.745,0,0,0-.707-1.376A2.912,2.912,0,0,0,186.132,11.838Z" transform="translate(-125.317 -6.872)" fill="#fff"/>
  <path id="Path_20" data-name="Path 20" d="M229.013,11.906c0-.651.353-.986,1.042-.986h.837v5.821a3.908,3.908,0,0,1-1,2.846,3.714,3.714,0,0,1-2.79,1.06,3.615,3.615,0,0,1-2.846-1.209,4.07,4.07,0,0,1-5.635.149,3.907,3.907,0,0,1-1-2.846V11.906c0-.651.353-.986,1.042-.986h.837v5.821a2.131,2.131,0,0,0,.484,1.544,1.9,1.9,0,0,0,1.432.484,1.869,1.869,0,0,0,1.376-.5,2.109,2.109,0,0,0,.521-1.525V11.906c0-.651.353-.986,1.042-.986h.837v5.821a2.118,2.118,0,0,0,.539,1.525,1.87,1.87,0,0,0,1.376.5,1.929,1.929,0,0,0,1.432-.484,2.131,2.131,0,0,0,.484-1.544V11.906Z" transform="translate(-150.157 -7.535)" fill="#fff"/>
  <path id="Path_21" data-name="Path 21" d="M273.477,10.919,269.795,21.3c-.093.242-.186.465-.279.707a3.1,3.1,0,0,1-.3.614,2.711,2.711,0,0,1-1.06.93,1.5,1.5,0,0,1-.967.112.71.71,0,0,1-.558-.781v-.856a1.5,1.5,0,0,0,.632-.149.764.764,0,0,0,.465-.465l.372-.949a1.463,1.463,0,0,1-1.134-.911L264.2,11.774a.665.665,0,0,1,0-.6.554.554,0,0,1,.539-.26h1.172l2.771,7.811h.019l2.529-7.1a.978.978,0,0,1,.986-.707h1.264Z" transform="translate(-182.254 -7.534)" fill="#fff"/>
  <path id="Path_22" data-name="Path 22" d="M304.3,10.444a4.035,4.035,0,0,1,1.172.986,2.763,2.763,0,0,1,.521,1.637,2.751,2.751,0,0,1-.316,1.395,2.828,2.828,0,0,1-.8.893,3.368,3.368,0,0,1-1.135.539,4.259,4.259,0,0,1-1.228.167h-2.269a1.716,1.716,0,0,1-.353-.019.737.737,0,0,1-.3-.149v.781a1.187,1.187,0,0,0,.67,1.06,2.656,2.656,0,0,0,1.283.372,3.782,3.782,0,0,0,1.358-.093,1.973,1.973,0,0,0,1.135-.614.839.839,0,0,1,1.116-.167l.911.446a3.332,3.332,0,0,1-.707,1.042,3.854,3.854,0,0,1-1.6.967,5.313,5.313,0,0,1-1.841.3,6.57,6.57,0,0,1-1.451-.149,4.275,4.275,0,0,1-1.358-.577,3.006,3.006,0,0,1-1.06-1.246,3.816,3.816,0,0,1-.335-1.618V13.327a3.3,3.3,0,0,1,.316-1.376,3.238,3.238,0,0,1,1.581-1.525,4.936,4.936,0,0,1,2.195-.465A5.729,5.729,0,0,1,304.3,10.444Zm-.688,3.515a1.007,1.007,0,0,0,.167-1.655,2.766,2.766,0,0,0-1.376-.465,5.667,5.667,0,0,0-1.432.112,2.251,2.251,0,0,0-.949.446,1.146,1.146,0,0,0-.428.893v.893H302.7A1.742,1.742,0,0,0,303.607,13.959Z" transform="translate(-205.428 -6.873)" fill="#fff"/>
  <path id="Path_23" data-name="Path 23" d="M329.99,14.23a3.124,3.124,0,0,1,1.079-2.567,3.189,3.189,0,0,1,2.139-.744h1.227v.837c0,.688-.316,1.042-.967,1.042h-.26a1.3,1.3,0,0,0-1.339,1.432v6.138h-.837c-.688,0-1.042-.335-1.042-.986V14.23Z" transform="translate(-227.701 -7.534)" fill="#fff"/>
  <path id="Path_24" data-name="Path 24" d="M359.566,12.321a1.929,1.929,0,0,0-1.432-.484,1.755,1.755,0,0,0-1.376.521,2.181,2.181,0,0,0-.539,1.525V19.7h-.837c-.688,0-1.042-.335-1.042-.986V13.883a2.17,2.17,0,0,0-.521-1.525,1.809,1.809,0,0,0-1.376-.521,1.9,1.9,0,0,0-1.432.484,2.276,2.276,0,0,0-.484,1.562V19.7h-.837c-.688,0-1.042-.335-1.042-.986V13.883a3.968,3.968,0,0,1,1-2.846,3.6,3.6,0,0,1,2.79-1.079,3.654,3.654,0,0,1,2.474.874,2.856,2.856,0,0,1,.372.353c.13-.13.242-.26.353-.353a4.072,4.072,0,0,1,5.282.2,3.968,3.968,0,0,1,1,2.846V19.7h-.837c-.688,0-1.042-.335-1.042-.986V13.883A2.274,2.274,0,0,0,359.566,12.321Z" transform="translate(-240.576 -6.872)" fill="#fff"/>
  <path id="Path_25" data-name="Path 25" d="M405.013,11.057a3.529,3.529,0,0,1,1.395,2.827V19.7h-.558a1.154,1.154,0,0,1-1.06-.763,4.105,4.105,0,0,1-2.9,1.042,4.745,4.745,0,0,1-3.125-1.1,3.494,3.494,0,0,1-1.395-2.808V13.883a3.529,3.529,0,0,1,1.395-2.827,4.744,4.744,0,0,1,3.125-1.1A4.817,4.817,0,0,1,405.013,11.057Zm-3.125.781a2.914,2.914,0,0,0-1.934.67,1.746,1.746,0,0,0-.707,1.376v2.195a1.772,1.772,0,0,0,.707,1.376,3.2,3.2,0,0,0,3.868,0,1.745,1.745,0,0,0,.706-1.376V13.884a1.745,1.745,0,0,0-.706-1.376A2.912,2.912,0,0,0,401.888,11.838Z" transform="translate(-274.194 -6.872)" fill="#fff"/>
  <path id="Path_26" data-name="Path 26" d="M433.369,14.23a3.124,3.124,0,0,1,1.078-2.567,3.19,3.19,0,0,1,2.139-.744h1.227v.837c0,.688-.316,1.042-.967,1.042h-.26a1.3,1.3,0,0,0-1.339,1.432v6.138h-.837c-.688,0-1.041-.335-1.041-.986Z" transform="translate(-299.034 -7.534)" fill="#fff"/>
  <path id="Path_27" data-name="Path 27" d="M452.567.986c0-.651.353-.986,1.041-.986h.837V7.309h.688c.372,0,.725.019.949-.353l1.767-2.9a1.3,1.3,0,0,1,1.135-.67h1.469L458.2,7.067a3.148,3.148,0,0,1-.372.521,2.811,2.811,0,0,1,1.413,1.562l1.618,3.683h-1.209a1.073,1.073,0,0,1-1.1-.6l-1.023-2.343a1.084,1.084,0,0,0-1.06-.707h-2.027v3.645h-.837c-.688,0-1.041-.335-1.041-.986V.986Z" transform="translate(-312.281)" fill="#fff"/>
  <path id="Path_28" data-name="Path 28" d="M489.512,10.444a4.035,4.035,0,0,1,1.172.986,2.763,2.763,0,0,1,.521,1.637,2.751,2.751,0,0,1-.316,1.395,2.826,2.826,0,0,1-.8.893,3.369,3.369,0,0,1-1.135.539,4.259,4.259,0,0,1-1.228.167h-2.269a1.716,1.716,0,0,1-.353-.019.738.738,0,0,1-.3-.149v.781a1.187,1.187,0,0,0,.67,1.06,2.656,2.656,0,0,0,1.283.372,3.782,3.782,0,0,0,1.358-.093,1.973,1.973,0,0,0,1.135-.614.839.839,0,0,1,1.116-.167l.911.446a3.332,3.332,0,0,1-.707,1.042,3.854,3.854,0,0,1-1.6.967,5.311,5.311,0,0,1-1.841.3,6.572,6.572,0,0,1-1.451-.149,4.275,4.275,0,0,1-1.358-.577,3.006,3.006,0,0,1-1.06-1.246,3.816,3.816,0,0,1-.335-1.618V13.327a3.3,3.3,0,0,1,.316-1.376,3.238,3.238,0,0,1,1.581-1.525,4.935,4.935,0,0,1,2.195-.465A5.729,5.729,0,0,1,489.512,10.444Zm-.688,3.515a1.007,1.007,0,0,0,.167-1.655,2.765,2.765,0,0,0-1.376-.465,5.666,5.666,0,0,0-1.432.112,2.248,2.248,0,0,0-.948.446,1.146,1.146,0,0,0-.428.893v.893h3.106A1.741,1.741,0,0,0,488.823,13.959Z" transform="translate(-333.231 -6.873)" fill="#fff"/>
  <path id="Path_29" data-name="Path 29" d="M519.6,3.385v.837c0,.688-.334,1.042-.986,1.042h-1.228V9.8a1.4,1.4,0,0,0,.446,1.116,1.292,1.292,0,0,0,.874.316v.856a.71.71,0,0,1-.558.781,1.278,1.278,0,0,1-.967-.112,2.71,2.71,0,0,1-1.19-1.042,3.617,3.617,0,0,1-.484-1.916V.986c0-.651.335-.986,1.023-.986h.856V3.385Z" transform="translate(-355.711)" fill="#fff"/>
  <path id="Path_30" data-name="Path 30" d="M534.789,0h.837V.893c0,.651-.353.986-1.041.986h-.837V.986C533.747.335,534.1,0,534.789,0Zm-1.042,4.371c0-.651.353-.986,1.041-.986h.837v9.448h-.837c-.688,0-1.041-.335-1.041-.986Z" transform="translate(-368.297)" fill="#fff"/>
  <path id="Path_31" data-name="Path 31" d="M548.526,11.02A4.453,4.453,0,0,1,551.5,9.96a4.5,4.5,0,0,1,2.994,1.06,3.479,3.479,0,0,1,1.32,2.7v5.988h-.837c-.688,0-1.041-.335-1.041-.986v-5a1.613,1.613,0,0,0-.651-1.265,2.905,2.905,0,0,0-3.571,0,1.613,1.613,0,0,0-.651,1.265v5.989h-.837c-.688,0-1.041-.335-1.041-.986v-5A3.387,3.387,0,0,1,548.526,11.02Z" transform="translate(-377.571 -6.873)" fill="#fff"/>
  <path id="Path_32" data-name="Path 32" d="M588.61,11.056a3.529,3.529,0,0,1,1.395,2.827v5.728a3.33,3.33,0,0,1-.353,1.562,3.79,3.79,0,0,1-2.362,1.841,5.8,5.8,0,0,1-1.636.223,7.381,7.381,0,0,1-1.451-.149,1.358,1.358,0,0,1-.874-.484.988.988,0,0,1-.037-.781l.167-.744a4.436,4.436,0,0,0,1.655.316,5.712,5.712,0,0,0,1.655-.186,1.571,1.571,0,0,0,1.358-1.6v-.372a5.025,5.025,0,0,1-5.765-.353,3.494,3.494,0,0,1-1.395-2.808V13.882a3.529,3.529,0,0,1,1.395-2.827,4.744,4.744,0,0,1,3.125-1.1A4.818,4.818,0,0,1,588.61,11.056Zm-3.124.781a2.914,2.914,0,0,0-1.934.67,1.745,1.745,0,0,0-.706,1.376v2.195a1.772,1.772,0,0,0,.706,1.376,3.2,3.2,0,0,0,3.868,0,1.745,1.745,0,0,0,.707-1.376V13.883a1.745,1.745,0,0,0-.707-1.376A2.911,2.911,0,0,0,585.486,11.837Z" transform="translate(-400.88 -6.871)" fill="#fff"/>
  <g id="Group_6" data-name="Group 6" transform="translate(0 3.963)">
    <path id="Path_33" data-name="Path 33" d="M3.687,15.76c.012-.81-.06-1.608-.991-1.608-.568,0-.931.23-.931.846,0,.689.435.955.967,1.294a15.6,15.6,0,0,1,2.055,1.487,2.367,2.367,0,0,1,.762,1.9,2.49,2.49,0,0,1-2.793,2.611A2.442,2.442,0,0,1,0,19.532v-.665H1.692V19.4c-.036.883.23,1.523,1.064,1.523a.938.938,0,0,0,1.052-1.064,1.373,1.373,0,0,0-.677-1.2A13.26,13.26,0,0,1,.459,16.57a2.518,2.518,0,0,1-.435-1.39c0-1.547.87-2.394,2.66-2.394,2.7,0,2.623,2.079,2.635,2.974Z" transform="translate(0 -12.786)" fill="#fff"/>
    <path id="Path_34" data-name="Path 34" d="M24.023,22.555V13.488h1.692v9.067Z" transform="translate(-16.576 -13.27)" fill="#fff"/>
    <path id="Path_35" data-name="Path 35" d="M34.4,13.488h5.646v1.33H38.072v7.737H36.38V14.818H34.4v-1.33Z" transform="translate(-23.735 -13.27)" fill="#fff"/>
    <path id="Path_36" data-name="Path 36" d="M57.29,22.555V13.488h4.763v1.33H58.983V17.1h2.829v1.33H58.983v2.793h3.071v1.33Z" transform="translate(-39.531 -13.27)" fill="#fff"/>
    <path id="Path_37" data-name="Path 37" d="M89.7,22.555V13.488h2.732a2.208,2.208,0,0,1,1.922.665,2.432,2.432,0,0,1,.447,1.632,1.755,1.755,0,0,1-1.088,1.9v.024c.955.133,1.318.931,1.318,2.1a4.3,4.3,0,0,1-.121,1.112,2.046,2.046,0,0,1-2.224,1.632H89.7Zm2.007-5.4c.411,0,.943.024,1.209-.314a1.73,1.73,0,0,0,.181-.979c0-.677-.145-1.015-.919-1.04h-.786v2.333Zm.048,4.074a2.556,2.556,0,0,0,1.015-.1c.459-.206.52-.8.52-1.257,0-.979-.193-1.39-1.245-1.39h-.653v2.745h.363Z" transform="translate(-61.894 -13.27)" fill="#fff"/>
    <path id="Path_38" data-name="Path 38" d="M113.681,15.87a6.107,6.107,0,0,1,.4,1.39h.024a7.739,7.739,0,0,1,.556-1.717l.81-2.055h1.85L114.926,18.7v3.856h-1.692V18.7l-2.357-5.211h1.85Z" transform="translate(-76.507 -13.27)" fill="#fff"/>
  </g>
</svg>
