<svg xmlns="http://www.w3.org/2000/svg" width="379.508" height="43.003" viewBox="0 0 379.508 43.003">
  <g id="Group_4" data-name="Group 4" transform="translate(-89.077 -162.838)">
    <g id="Group_2" data-name="Group 2" transform="translate(89.077 162.838)">
      <g id="Group_1" data-name="Group 1">
        <path id="Path_1" data-name="Path 1" d="M89.077,162.838v43h94.6v-43ZM161.844,202h-17.6c-15.291,0-17.887-3.469-17.887-13.609,0-7.578.863-12.871,10.746-12.871h4c-.87-4.418-3.816-5.116-12.791-5.116H111.29c-11.53,0-13.124,1.125-13.124,9.876,0,7.42.07,9.123,10.962,9.123h5.191V179.38h5.053v13.768H107.685c-13.994,0-14.566-4.538-14.566-12.864,0-10.143,2.6-13.614,17.889-13.614h17.6c15.29,0,17.885,3.471,17.885,13.614,0,7.579-.872,12.864-10.748,12.864h-4c.867,4.428,3.819,5.118,12.791,5.118h17.018c11.54,0,13.128-1.12,13.128-9.871,0-7.423-.071-9.13-10.964-9.13h-5.186V189.3h-5.057V175.525h11.679c13.989,0,14.576,4.542,14.576,12.871C179.729,198.535,177.132,202,161.844,202Z" transform="translate(-89.077 -162.838)" fill="#00afcc"/>
        <path id="Path_2" data-name="Path 2" d="M124.014,173.521c0-.355-.012-.687-.017-1.018h-.928c-8.006,0-9.089,1.283-9.089,9.13,0,.354.008.675.008,1.011h.935C122.926,182.644,124.014,181.366,124.014,173.521Z" transform="translate(-71.65 -156.074)" fill="#00afcc"/>
      </g>
    </g>
    <g id="Group_3" data-name="Group 3" transform="translate(191.862 169.044)">
      <path id="Path_3" data-name="Path 3" d="M203.692,183.412H189.9a5.047,5.047,0,0,0,5.176,4.459,5.494,5.494,0,0,0,4.8-2.342l3.024,2.417a9.024,9.024,0,0,1-7.785,3.627c-5.592,0-9.748-3.59-9.748-9.483a9.255,9.255,0,0,1,9.6-9.711c5.062,0,8.766,3.287,8.766,9.825C203.73,182.619,203.73,183,203.692,183.412Zm-4.5-3.25c0-2.342-1.322-4.382-4.27-4.382a4.841,4.841,0,0,0-5.025,4.382Z" transform="translate(-124.48 -162.367)" fill="#fff"/>
      <path id="Path_4" data-name="Path 4" d="M191.617,183.412H177.825A5.049,5.049,0,0,0,183,187.871a5.5,5.5,0,0,0,4.8-2.342l3.022,2.417a9.023,9.023,0,0,1-7.783,3.627c-5.592,0-9.748-3.59-9.748-9.483a9.254,9.254,0,0,1,9.6-9.711c5.062,0,8.766,3.287,8.766,9.825C191.655,182.619,191.655,183,191.617,183.412Zm-4.5-3.25c0-2.342-1.321-4.382-4.268-4.382a4.843,4.843,0,0,0-5.026,4.382Z" transform="translate(-132.929 -162.367)" fill="#fff"/>
      <path id="Path_5" data-name="Path 5" d="M197.76,174.155l4.307-1.248v2.91h.076a6.172,6.172,0,0,1,5.63-3.439c4.722,0,6.687,3.627,6.687,7.331v11.334h-4.535V180.994c0-2.154-.49-4.836-3.4-4.836-2.871,0-4.232,2.494-4.232,4.912v9.974H197.76Z" transform="translate(-115.806 -162.367)" fill="#fff"/>
      <path id="Path_6" data-name="Path 6" d="M214.289,166.489v12.845h.114a7.425,7.425,0,0,1,6.084-2.834c5.176,0,8.8,4.156,8.8,9.522,0,5.29-3.4,9.672-8.917,9.672a7.22,7.22,0,0,1-6.235-3.248h-.075v2.72h-4.309V167.735Zm5.178,13.716c-3.327,0-5.329,3.06-5.329,5.893s2,5.82,5.329,5.82c3.513,0,5.213-3.061,5.213-5.895S222.98,180.2,219.467,180.2Z" transform="translate(-107.413 -166.489)" fill="#fff"/>
      <path id="Path_7" data-name="Path 7" d="M240.963,183.412h-13.79a5.047,5.047,0,0,0,5.176,4.459,5.494,5.494,0,0,0,4.8-2.342l3.024,2.417a9.024,9.024,0,0,1-7.785,3.627c-5.592,0-9.748-3.59-9.748-9.483a9.255,9.255,0,0,1,9.6-9.711c5.062,0,8.766,3.287,8.766,9.825C241,182.619,241,183,240.963,183.412Zm-4.5-3.25c0-2.342-1.322-4.382-4.27-4.382a4.841,4.841,0,0,0-5.025,4.382Z" transform="translate(-98.397 -162.367)" fill="#fff"/>
      <path id="Path_8" data-name="Path 8" d="M261.621,172.908v16.512c0,6.537-3.174,9.447-10.24,9.447a15.2,15.2,0,0,1-8.994-2.985L245,192.367a9.308,9.308,0,0,0,6.347,2.57c4.382,0,5.744-1.4,5.744-4.989v-1.321h-.077a7.142,7.142,0,0,1-5.932,2.72c-5.441,0-8.955-4.307-8.955-9.446,0-5.252,3.4-9.522,8.88-9.522a7.054,7.054,0,0,1,6.235,3.25h.075v-1.474Zm-14.887,8.956c0,2.871,1.926,5.742,5.176,5.742a5.432,5.432,0,0,0,5.4-5.742c0-3.138-2.079-5.781-5.366-5.781S246.734,178.651,246.734,181.864Z" transform="translate(-84.76 -162.367)" fill="#fff"/>
      <path id="Path_9" data-name="Path 9" d="M291.815,172.646c5.48,0,9.864,3.816,9.864,9.522a9.864,9.864,0,0,1-19.724,0C281.954,176.462,286.338,172.646,291.815,172.646Zm0,15.415c3.59,0,5.252-3.06,5.252-5.893s-1.662-5.818-5.252-5.818-5.251,2.983-5.251,5.818S288.226,188.061,291.815,188.061Z" transform="translate(-56.888 -162.18)" fill="#fff"/>
      <path id="Path_10" data-name="Path 10" d="M305.973,178.012a5.134,5.134,0,0,0-3.967-1.965c-1.436,0-2.91.529-2.91,1.965,0,1.4,1.4,1.775,3.93,2.38,2.682.642,5.856,1.851,5.856,5.4,0,4.419-3.588,6.044-7.556,6.044a10.223,10.223,0,0,1-7.443-2.985l2.983-2.8a5.913,5.913,0,0,0,4.649,2.268c1.322,0,2.91-.529,2.91-2.154,0-1.511-1.4-1.965-4.156-2.607-2.684-.643-5.366-1.739-5.366-5.139,0-4.042,3.627-5.781,7.217-5.781,2.606,0,5.327.908,6.8,2.759Z" transform="translate(-48.54 -162.18)" fill="#fff"/>
      <path id="Path_11" data-name="Path 11" d="M315.589,178.012a5.134,5.134,0,0,0-3.967-1.965c-1.436,0-2.91.529-2.91,1.965,0,1.4,1.4,1.775,3.93,2.38,2.682.642,5.856,1.851,5.856,5.4,0,4.419-3.59,6.044-7.557,6.044a10.226,10.226,0,0,1-7.443-2.985l2.985-2.8a5.913,5.913,0,0,0,4.647,2.268c1.324,0,2.91-.529,2.91-2.154,0-1.511-1.4-1.965-4.156-2.607-2.684-.643-5.366-1.739-5.366-5.139,0-4.042,3.627-5.781,7.217-5.781,2.608,0,5.329.908,6.8,2.759Z" transform="translate(-41.812 -162.18)" fill="#fff"/>
      <path id="Path_12" data-name="Path 12" d="M164.016,181.06v2.259h5.631v6.8a13.856,13.856,0,0,1-5.329.943c-5.893,0-9.521-4.156-9.521-9.861,0-5.518,3.665-9.787,9.294-9.787a9.509,9.509,0,0,1,6.84,2.721l3.286-3.553c-2.154-2-5.932-3.362-10.163-3.362-8.237,0-14.509,5.4-14.509,13.981,0,8.349,6.009,14.13,14.622,14.13a22.751,22.751,0,0,0,10.09-2.077V178.077Z" transform="translate(-149.546 -165.976)" fill="#fff"/>
      <path id="Path_13" data-name="Path 13" d="M170.784,176.061h-.075v-3.87l-4.346,1.266v17.719H170.9v-9.711a4.733,4.733,0,0,1,4.875-4.873,5.283,5.283,0,0,1,1.4.189v-4.156a5.067,5.067,0,0,0-1.1-.114A5.874,5.874,0,0,0,170.784,176.061Z" transform="translate(-137.778 -162.499)" fill="#fff"/>
      <path id="Path_14" data-name="Path 14" d="M272.514,181.236V183.5h5.63v6.8a13.842,13.842,0,0,1-5.327.943c-5.895,0-9.522-4.156-9.522-9.861,0-5.518,3.665-9.787,9.294-9.787a9.5,9.5,0,0,1,6.84,2.721l3.287-3.553c-2.154-2-5.932-3.362-10.165-3.362-8.237,0-14.509,5.4-14.509,13.981,0,8.349,6.009,14.13,14.623,14.13a22.767,22.767,0,0,0,10.088-2.077V178.255Z" transform="translate(-73.621 -165.851)" fill="#fff"/>
      <path id="Path_15" data-name="Path 15" d="M279.281,176.639h-.075v-3.87l-4.346,1.266v17.719H279.4v-9.711a4.73,4.73,0,0,1,4.873-4.873,5.287,5.287,0,0,1,1.4.189V173.2a5.091,5.091,0,0,0-1.1-.114A5.872,5.872,0,0,0,279.281,176.639Z" transform="translate(-61.852 -162.094)" fill="#fff"/>
      <path id="Path_16" data-name="Path 16" d="M239.453,176.233h-.076v-3.87l-4.345,1.266v17.719h4.533v-9.711a4.732,4.732,0,0,1,4.875-4.873,5.266,5.266,0,0,1,1.4.189v-4.158a5.177,5.177,0,0,0-1.1-.112A5.872,5.872,0,0,0,239.453,176.233Z" transform="translate(-89.723 -162.378)" fill="#fff"/>
    </g>
  </g>
</svg>
