<svg xmlns="http://www.w3.org/2000/svg" width="158.141" height="27.827" viewBox="0 0 158.141 27.827">
  <g id="stars" transform="translate(-725.747 95.608)">
    <path id="Path_205" data-name="Path 205" d="M740.377-95.608l3.454,10.629h11.176l-9.042,6.569,3.454,10.629-9.042-6.569-9.042,6.569,3.454-10.629-9.042-6.569h11.176Z" transform="translate(0)" fill="#cc0d29"/>
    <path id="Path_206" data-name="Path 206" d="M779.246-95.608,782.7-84.979h11.176l-9.042,6.569,3.454,10.629-9.042-6.569L770.2-67.781l3.454-10.629-9.042-6.569h11.176Z" transform="translate(-6.649)" fill="#cc0d29"/>
    <path id="Path_207" data-name="Path 207" d="M818.116-95.608l3.454,10.629h11.176L823.7-78.41l3.454,10.629-9.042-6.569-9.042,6.569,3.454-10.629-9.042-6.569h11.176Z" transform="translate(-13.299)" fill="#cc0d29"/>
    <path id="Path_208" data-name="Path 208" d="M856.986-95.608l3.454,10.629h11.176l-9.042,6.569,3.454,10.629-9.042-6.569-9.042,6.569L851.4-78.41l-9.042-6.569h11.176Z" transform="translate(-19.948)" fill="#cc0d29"/>
    <path id="Path_209" data-name="Path 209" d="M895.856-95.608l3.454,10.629h11.176l-9.042,6.569L904.9-67.781l-9.042-6.569-9.042,6.569,3.454-10.629-9.042-6.569H892.4Z" transform="translate(-26.597)" fill="#cc0d29"/>
  </g>
</svg>
